<svg xmlns="http://www.w3.org/2000/svg" viewBox="0 0 93.67 50"><defs><style>.cls-1{fill:#4eb74e;}.cls-2,.cls-3{fill:none;}.cls-2{stroke:#fff;stroke-miterlimit:10;stroke-width:0.25px;}</style></defs><title>logo</title><g id="icon"><path class="cls-1" d="M59.43,31.77c4.19-1.91,10.93.83,16.17-1.58s8.12-10.27,8.12-10.27,0,0-.06,0c-1.13-.35-17.5-5.21-23.29,8.23Z"/><path class="cls-2" d="M59.43,31.77S68.25,21.3,78.87,21.3"/><rect class="cls-1" x="51.21" y="12.22" width="8.22" height="4.47"/><polygon class="cls-1" points="51.21 4.59 51.21 8.62 72.38 8.62 76.4 4.59 51.21 4.59"/><polygon class="cls-1" points="75.3 8.62 83.72 8.62 83.72 4.59 79.32 4.59 75.3 8.62"/><rect class="cls-1" x="51.21" y="18.76" width="8.22" height="18.9"/><rect class="cls-1" x="51.21" y="39.73" width="8.22" height="4.87"/><polygon class="cls-1" points="51.21 44.59 51.21 48.62 75.4 48.62 71.38 44.59 51.21 44.59"/><polygon class="cls-1" points="83.72 44.59 74.31 44.59 78.33 48.62 83.72 48.62 83.72 44.59"/></g><g id="background"><rect class="cls-1" x="34.51" y="21.7" width="4.08" height="26.92"/><rect class="cls-1" x="34.51" y="13.06" width="4.08" height="4.08" transform="translate(21.39 -21.42) rotate(45)"/><path class="cls-3" d="M17.68,19.11c5.22,0,9.45-2.84,9.45-6.34S22.9,6.44,17.68,6.44a12.84,12.84,0,0,0-5.37,1.13V18A12.84,12.84,0,0,0,17.68,19.11Z"/><path class="cls-1" d="M8.23,12.77c0,2.16,1.62,4.07,4.08,5.21V7.57C9.85,8.71,8.23,10.61,8.23,12.77Z"/><path class="cls-1" d="M8.23,48.62h4.08V20.94a15,15,0,0,1-4.08-1.88Z"/><path class="cls-1" d="M17.68,3.85a18.88,18.88,0,0,0-5.37.76v3a12.84,12.84,0,0,1,5.37-1.13c5.22,0,9.45,2.84,9.45,6.33s-4.23,6.34-9.45,6.34A12.84,12.84,0,0,1,12.31,18v3a19.24,19.24,0,0,0,5.37.76C25,21.7,31,17.7,31,12.77S25,3.85,17.68,3.85Z"/></g></svg>