<svg xmlns="http://www.w3.org/2000/svg" viewBox="0 0 152.93 44.77"><defs><style>.cls-1{fill:#4eb74e;}.cls-2,.cls-3{fill:none;}.cls-2{stroke:#fff;stroke-miterlimit:10;stroke-width:0.25px;}</style></defs><title>logo</title><g id="icon"><path class="cls-1" d="M69.38,31.77c4.18-1.91,10.92.83,16.17-1.58s8.12-10.27,8.12-10.27a.08.08,0,0,0-.06,0c-1.14-.35-17.5-5.21-23.29,8.23Z" transform="translate(-18.18 -3.85)"/><path class="cls-2" d="M69.38,31.77S78.2,21.3,88.82,21.3" transform="translate(-18.18 -3.85)"/><rect class="cls-1" x="42.98" y="8.37" width="8.22" height="4.47"/><polygon class="cls-1" points="42.98 0.74 42.98 4.76 64.14 4.76 68.16 0.74 42.98 0.74"/><polygon class="cls-1" points="67.07 4.76 75.49 4.76 75.49 0.74 71.09 0.74 67.07 4.76"/><rect class="cls-1" x="42.98" y="14.91" width="8.22" height="18.9"/><rect class="cls-1" x="42.98" y="35.88" width="8.22" height="4.87"/><polygon class="cls-1" points="42.98 40.74 42.98 44.77 67.17 44.77 63.15 40.74 42.98 40.74"/><polygon class="cls-1" points="75.49 40.74 66.07 40.74 70.09 44.77 75.49 44.77 75.49 40.74"/></g><g id="background"><rect class="cls-1" x="26.28" y="17.85" width="4.08" height="26.92"/><rect class="cls-1" x="44.46" y="13.06" width="4.08" height="4.08" transform="translate(6.12 -32.31) rotate(45)"/><polygon class="cls-1" points="121.51 17.89 115.39 36.3 109.08 17.91 105.22 19.24 113.27 42.69 113.59 43.62 113.96 44.7 115.37 44.22 116.89 44.72 117.28 43.56 117.57 42.67 125.38 19.18 121.51 17.89"/><rect class="cls-1" x="131.4" y="17.85" width="4.08" height="26.92"/><rect class="cls-1" x="149.58" y="13.06" width="4.08" height="4.08" transform="translate(36.91 -106.64) rotate(45)"/><path class="cls-1" d="M162.35,27.15c1.21-3.57,3.82-5.45,7.07-5.45a5.91,5.91,0,0,0,1.68,0v4.35a7.38,7.38,0,0,0-1.65-.16c-3.42,0-5.84,2.59-6.51,6.22a14.87,14.87,0,0,0-.21,2.26v14.2H158V21.7h4v5.44Z" transform="translate(-18.18 -3.85)"/><path class="cls-1" d="M120.45,32.74V48.57h-4.58V34.37a14.8,14.8,0,0,0-.22-2.26c-.67-3.63-3.09-6.22-6.5-6.22h-1.28c-3.42,0-5.84,2.59-6.5,6.22a13.63,13.63,0,0,0-.22,2.26v14.2H96.36V21.7h4v5.44h.39c1.21-3.57,3.83-5.45,7.08-5.45h1.34c3.25,0,7.58,1.53,9.41,4.83A12.33,12.33,0,0,1,120.45,32.74Z" transform="translate(-18.18 -3.85)"/><path class="cls-1" d="M-25.51,21.71" transform="translate(-18.18 -3.85)"/><path class="cls-3" d="M27.63,19.11c5.22,0,9.45-2.84,9.45-6.34s-4.23-6.33-9.45-6.33a12.81,12.81,0,0,0-5.37,1.13V18A12.81,12.81,0,0,0,27.63,19.11Z" transform="translate(-18.18 -3.85)"/><path class="cls-1" d="M18.18,12.77c0,2.16,1.62,4.07,4.08,5.21V7.57C19.8,8.71,18.18,10.61,18.18,12.77Z" transform="translate(-18.18 -3.85)"/><path class="cls-1" d="M18.18,48.62h4.08V20.94a14.87,14.87,0,0,1-4.08-1.88Z" transform="translate(-18.18 -3.85)"/><path class="cls-1" d="M27.63,3.85a18.83,18.83,0,0,0-5.37.76v3a12.81,12.81,0,0,1,5.37-1.13c5.22,0,9.45,2.84,9.45,6.33s-4.23,6.34-9.45,6.34A12.81,12.81,0,0,1,22.26,18v3a19.19,19.19,0,0,0,5.37.76C35,21.7,41,17.7,41,12.77S35,3.85,27.63,3.85Z" transform="translate(-18.18 -3.85)"/></g></svg>